<svg width="40" height="40" viewBox="0 0 40 40" fill="none" xmlns="http://www.w3.org/2000/svg">
<path d="M28 0H12C5.37258 0 0 5.37258 0 12V28C0 34.6274 5.37258 40 12 40H28C34.6274 40 40 34.6274 40 28V12C40 5.37258 34.6274 0 28 0Z" fill="#009CA7"/>
<path d="M25.9621 13.5165H25.8721C24.7061 13.5263 23.5911 13.9972 22.7701 14.8262C22.3611 15.2286 22.0381 15.7107 21.8231 16.2428C21.6071 16.7748 21.5031 17.3454 21.5161 17.9193V30.1637H18.5301V17.9193C18.5421 17.3459 18.4381 16.776 18.2231 16.2443C18.0081 15.7125 17.6871 15.2301 17.2801 14.8262C16.4581 13.9987 15.3441 13.5281 14.1781 13.5165C13.5921 13.5044 13.0091 13.6117 12.4661 13.8317C11.9221 14.0517 11.4291 14.3799 11.0171 14.7964C10.6011 15.1992 10.2731 15.6832 10.0531 16.2183C9.8331 16.7533 9.72511 17.328 9.73711 17.9065V30.68C9.73711 30.7492 9.7521 30.8177 9.7791 30.8814C9.8061 30.9452 9.84511 31.0029 9.89511 31.0513C9.94511 31.0997 10.0031 31.1378 10.0681 31.1634C10.1321 31.189 10.2011 31.2016 10.2701 31.2004C10.3791 31.2001 10.4861 31.1675 10.5771 31.1066L17.4631 26.3453V30.68C17.4631 30.7493 17.4761 30.818 17.5041 30.8819C17.5311 30.9457 17.5711 31.0033 17.6211 31.0511C17.7211 31.1486 17.8561 31.2023 17.9961 31.2004H22.1431C22.2411 31.1903 22.3341 31.1534 22.4121 31.0938L29.2381 26.4008V30.6757C29.2381 30.8171 29.2941 30.9528 29.3941 31.0528C29.4941 31.1528 29.6301 31.209 29.7721 31.209C29.9131 31.209 30.0491 31.1528 30.1491 31.0528C30.2491 30.9528 30.3051 30.8171 30.3051 30.6757V17.9193C30.3171 17.3389 30.2091 16.7621 29.9891 16.2249C29.7691 15.6877 29.4411 15.2014 29.0251 14.7964C28.2131 13.9813 27.1121 13.5211 25.9621 13.5165ZM25.9401 14.5574C26.8191 14.5593 27.6611 14.9091 28.2831 15.5302C28.6001 15.8397 28.8501 16.2119 29.0161 16.6233C29.1821 17.0346 29.2611 17.476 29.2471 17.9193V25.1081L22.5831 29.7115V17.8937C22.5751 17.4587 22.6551 17.0266 22.8191 16.6234C22.9821 16.2201 23.2261 15.8541 23.5341 15.5472C24.1561 14.9198 25.0011 14.5639 25.8851 14.5574H25.9401ZM14.1871 14.5574C15.0691 14.5641 15.9131 14.92 16.5331 15.5472C16.8441 15.8573 17.0891 16.2276 17.2511 16.6355C17.4141 17.0434 17.4921 17.4803 17.4801 17.9193V25.0868L10.8201 29.6944V17.8937C10.8101 17.4539 10.8911 17.0167 11.0591 16.6099C11.2261 16.203 11.4761 15.8354 11.7931 15.5302C12.1071 15.2189 12.4791 14.9726 12.8881 14.8057C13.2981 14.6388 13.7361 14.5544 14.1781 14.5574H14.1871Z" fill="white"/>
<path d="M31.644 11.1608C30.129 9.65293 28.078 8.80495 25.94 8.80157H25.795C23.646 8.82025 21.592 9.68654 20.078 11.212C20.078 11.2376 20.031 11.259 20.01 11.2803L19.946 11.2163C18.415 9.67963 16.338 8.81128 14.168 8.80088C11.999 8.79049 9.91298 9.6389 8.36698 11.1608C7.60598 11.8986 7.00398 12.7847 6.59898 13.7644C6.19398 14.7441 5.99398 15.7964 6.01198 16.8564C6.02398 16.9913 6.08598 17.1167 6.18598 17.2081C6.28598 17.2995 6.41698 17.3502 6.55198 17.3502C6.68698 17.3502 6.81798 17.2995 6.91798 17.2081C7.01798 17.1167 7.07997 16.9913 7.09197 16.8564C7.07797 15.9378 7.25198 15.026 7.60298 14.1771C7.95498 13.3282 8.47597 12.5602 9.13497 11.9203C9.79997 11.2529 10.594 10.7274 11.468 10.3754C12.342 10.0235 13.279 9.85235 14.221 9.87242C16.074 9.88922 17.847 10.6339 19.157 11.9459C19.302 12.0952 19.443 12.2488 19.583 12.4109C19.636 12.4722 19.702 12.5215 19.775 12.5552C19.849 12.589 19.929 12.6064 20.01 12.6064C20.091 12.6064 20.171 12.589 20.245 12.5552C20.318 12.5215 20.384 12.4722 20.437 12.4109C20.569 12.253 20.71 12.0994 20.863 11.9459C22.174 10.6223 23.954 9.87082 25.817 9.85536H25.94C27.795 9.85624 29.574 10.5909 30.889 11.8989C31.549 12.5409 32.07 13.3112 32.421 14.1623C32.772 15.0135 32.945 15.9274 32.929 16.8479C32.93 16.9894 32.986 17.1248 33.086 17.2253C33.185 17.3257 33.32 17.3832 33.462 17.3854C33.602 17.3855 33.736 17.3312 33.836 17.2341C33.936 17.1369 33.995 17.0045 33.999 16.8649C34.017 15.8038 33.817 14.7502 33.412 13.7692C33.007 12.7882 32.406 11.9005 31.644 11.1608Z" fill="white"/>
</svg>
